<?xml version="1.0" encoding="UTF-8" standalone="no"?>
<!DOCTYPE svg PUBLIC "-//W3C//DTD SVG 1.1//EN" "http://www.w3.org/Graphics/SVG/1.1/DTD/svg11.dtd">
<svg width="100%" height="100%" viewBox="0 0 497 355" version="1.1" xmlns="http://www.w3.org/2000/svg" xmlns:xlink="http://www.w3.org/1999/xlink" xml:space="preserve" xmlns:serif="http://www.serif.com/" style="fill-rule:evenodd;clip-rule:evenodd;stroke-linecap:round;stroke-linejoin:round;stroke-miterlimit:1.5;">
    <rect id="ArtBoard1" x="0" y="0" width="496.063" height="354.331" style="fill:none;"/>
    <g id="ArtBoard11" serif:id="ArtBoard1">
        <g id="ECC-logo-magenta.svg" transform="matrix(0.119136,0,0,0.119136,248.031,75.2196)">
            <g transform="matrix(1,0,0,1,-540,-540)">
                <g id="SVG">
                    <g transform="matrix(0.981481,0,0,0.981481,10,10)">
                        <circle cx="540" cy="540" r="540" style="fill:none;stroke:rgb(209,0,177);stroke-width:16.3px;"/>
                    </g>
                    <g id="Star-circles" serif:id="Star circles" transform="matrix(1,0,0,1,-9.93745,-14.1552)">
                        <g id="_5th-circle" serif:id="5th circle" transform="matrix(1,0,0,1,-1,0)">
                            <g transform="matrix(0.311254,0,0,0.337867,164.552,34.0007)">
                                <path d="M516.003,379.305C516.158,379.015 516.478,378.831 516.827,378.831C517.177,378.831 517.496,379.015 517.651,379.305L533.867,409.675L570.056,414.576C570.402,414.623 570.689,414.848 570.797,415.156C570.905,415.464 570.815,415.802 570.565,416.028L544.397,439.699L550.548,473.098C550.607,473.417 550.465,473.74 550.183,473.93C549.9,474.12 549.525,474.146 549.215,473.995L516.827,458.255L484.439,473.995C484.13,474.146 483.755,474.12 483.472,473.93C483.189,473.74 483.047,473.417 483.106,473.098L489.257,439.699L463.089,416.028C462.839,415.802 462.749,415.464 462.857,415.156C462.965,414.848 463.252,414.623 463.598,414.576L499.788,409.675L516.003,379.305Z" style="fill:rgb(209,0,177);"/>
                            </g>
                            <g transform="matrix(0.311254,0,0,0.337867,612.175,34.0007)">
                                <path d="M516.003,379.305C516.158,379.015 516.478,378.831 516.827,378.831C517.177,378.831 517.496,379.015 517.651,379.305L533.867,409.675L570.056,414.576C570.402,414.623 570.689,414.848 570.797,415.156C570.905,415.464 570.815,415.802 570.565,416.028L544.397,439.699L550.548,473.098C550.607,473.417 550.465,473.74 550.183,473.93C549.9,474.12 549.525,474.146 549.215,473.995L516.827,458.255L484.439,473.995C484.13,474.146 483.755,474.12 483.472,473.93C483.189,473.74 483.047,473.417 483.106,473.098L489.257,439.699L463.089,416.028C462.839,415.802 462.749,415.464 462.857,415.156C462.965,414.848 463.252,414.623 463.598,414.576L499.788,409.675L516.003,379.305Z" style="fill:rgb(209,0,177);"/>
                            </g>
                            <g transform="matrix(0.311254,0,0,0.337867,612.175,785.776)">
                                <path d="M516.003,379.305C516.158,379.015 516.478,378.831 516.827,378.831C517.177,378.831 517.496,379.015 517.651,379.305L533.867,409.675L570.056,414.576C570.402,414.623 570.689,414.848 570.797,415.156C570.905,415.464 570.815,415.802 570.565,416.028L544.397,439.699L550.548,473.098C550.607,473.417 550.465,473.74 550.183,473.93C549.9,474.12 549.525,474.146 549.215,473.995L516.827,458.255L484.439,473.995C484.13,474.146 483.755,474.12 483.472,473.93C483.189,473.74 483.047,473.417 483.106,473.098L489.257,439.699L463.089,416.028C462.839,415.802 462.749,415.464 462.857,415.156C462.965,414.848 463.252,414.623 463.598,414.576L499.788,409.675L516.003,379.305Z" style="fill:rgb(209,0,177);"/>
                            </g>
                            <g transform="matrix(0.311254,0,0,0.337867,164.552,785.776)">
                                <path d="M516.003,379.305C516.158,379.015 516.478,378.831 516.827,378.831C517.177,378.831 517.496,379.015 517.651,379.305L533.867,409.675L570.056,414.576C570.402,414.623 570.689,414.848 570.797,415.156C570.905,415.464 570.815,415.802 570.565,416.028L544.397,439.699L550.548,473.098C550.607,473.417 550.465,473.74 550.183,473.93C549.9,474.12 549.525,474.146 549.215,473.995L516.827,458.255L484.439,473.995C484.13,474.146 483.755,474.12 483.472,473.93C483.189,473.74 483.047,473.417 483.106,473.098L489.257,439.699L463.089,416.028C462.839,415.802 462.749,415.464 462.857,415.156C462.965,414.848 463.252,414.623 463.598,414.576L499.788,409.675L516.003,379.305Z" style="fill:rgb(209,0,177);"/>
                            </g>
                            <g transform="matrix(0.311254,0,0,0.337867,-46.7219,412.005)">
                                <path d="M516.003,379.305C516.158,379.015 516.478,378.831 516.827,378.831C517.177,378.831 517.496,379.015 517.651,379.305L533.867,409.675L570.056,414.576C570.402,414.623 570.689,414.848 570.797,415.156C570.905,415.464 570.815,415.802 570.565,416.028L544.397,439.699L550.548,473.098C550.607,473.417 550.465,473.74 550.183,473.93C549.9,474.12 549.525,474.146 549.215,473.995L516.827,458.255L484.439,473.995C484.13,474.146 483.755,474.12 483.472,473.93C483.189,473.74 483.047,473.417 483.106,473.098L489.257,439.699L463.089,416.028C462.839,415.802 462.749,415.464 462.857,415.156C462.965,414.848 463.252,414.623 463.598,414.576L499.788,409.675L516.003,379.305Z" style="fill:rgb(209,0,177);"/>
                            </g>
                            <g transform="matrix(0.311254,0,0,0.337867,826.868,412.005)">
                                <path d="M516.003,379.305C516.158,379.015 516.478,378.831 516.827,378.831C517.177,378.831 517.496,379.015 517.651,379.305L533.867,409.675L570.056,414.576C570.402,414.623 570.689,414.848 570.797,415.156C570.905,415.464 570.815,415.802 570.565,416.028L544.397,439.699L550.548,473.098C550.607,473.417 550.465,473.74 550.183,473.93C549.9,474.12 549.525,474.146 549.215,473.995L516.827,458.255L484.439,473.995C484.13,474.146 483.755,474.12 483.472,473.93C483.189,473.74 483.047,473.417 483.106,473.098L489.257,439.699L463.089,416.028C462.839,415.802 462.749,415.464 462.857,415.156C462.965,414.848 463.252,414.623 463.598,414.576L499.788,409.675L516.003,379.305Z" style="fill:rgb(209,0,177);"/>
                            </g>
                        </g>
                        <g id="_4th-circle" serif:id="4th circle" transform="matrix(1,0,0,1,-1,0)">
                            <g transform="matrix(0.451023,0,0,0.505951,-30.7582,140.732)">
                                <path d="M516.003,379.305C516.158,379.015 516.478,378.831 516.827,378.831C517.177,378.831 517.496,379.015 517.651,379.305L533.867,409.675L570.056,414.576C570.402,414.623 570.689,414.848 570.797,415.156C570.905,415.464 570.815,415.802 570.565,416.028L544.397,439.699L550.548,473.098C550.607,473.417 550.465,473.74 550.183,473.93C549.9,474.12 549.525,474.146 549.215,473.995L516.827,458.255L484.439,473.995C484.13,474.146 483.755,474.12 483.472,473.93C483.189,473.74 483.047,473.417 483.106,473.098L489.257,439.699L463.089,416.028C462.839,415.802 462.749,415.464 462.857,415.156C462.965,414.848 463.252,414.623 463.598,414.576L499.788,409.675L516.003,379.305Z" style="fill:rgb(209,0,177);"/>
                            </g>
                            <g transform="matrix(0.451023,0,0,0.505951,-30.7582,542.806)">
                                <path d="M516.003,379.305C516.158,379.015 516.478,378.831 516.827,378.831C517.177,378.831 517.496,379.015 517.651,379.305L533.867,409.675L570.056,414.576C570.402,414.623 570.689,414.848 570.797,415.156C570.905,415.464 570.815,415.802 570.565,416.028L544.397,439.699L550.548,473.098C550.607,473.417 550.465,473.74 550.183,473.93C549.9,474.12 549.525,474.146 549.215,473.995L516.827,458.255L484.439,473.995C484.13,474.146 483.755,474.12 483.472,473.93C483.189,473.74 483.047,473.417 483.106,473.098L489.257,439.699L463.089,416.028C462.839,415.802 462.749,415.464 462.857,415.156C462.965,414.848 463.252,414.623 463.598,414.576L499.788,409.675L516.003,379.305Z" style="fill:rgb(209,0,177);"/>
                            </g>
                            <g transform="matrix(0.451023,0,0,0.505951,662.636,542.806)">
                                <path d="M516.003,379.305C516.158,379.015 516.478,378.831 516.827,378.831C517.177,378.831 517.496,379.015 517.651,379.305L533.867,409.675L570.056,414.576C570.402,414.623 570.689,414.848 570.797,415.156C570.905,415.464 570.815,415.802 570.565,416.028L544.397,439.699L550.548,473.098C550.607,473.417 550.465,473.74 550.183,473.93C549.9,474.12 549.525,474.146 549.215,473.995L516.827,458.255L484.439,473.995C484.13,474.146 483.755,474.12 483.472,473.93C483.189,473.74 483.047,473.417 483.106,473.098L489.257,439.699L463.089,416.028C462.839,415.802 462.749,415.464 462.857,415.156C462.965,414.848 463.252,414.623 463.598,414.576L499.788,409.675L516.003,379.305Z" style="fill:rgb(209,0,177);"/>
                            </g>
                            <g transform="matrix(0.451023,0,0,0.505951,662.636,137.895)">
                                <path d="M516.003,379.305C516.158,379.015 516.478,378.831 516.827,378.831C517.177,378.831 517.496,379.015 517.651,379.305L533.867,409.675L570.056,414.576C570.402,414.623 570.689,414.848 570.797,415.156C570.905,415.464 570.815,415.802 570.565,416.028L544.397,439.699L550.548,473.098C550.607,473.417 550.465,473.74 550.183,473.93C549.9,474.12 549.525,474.146 549.215,473.995L516.827,458.255L484.439,473.995C484.13,474.146 483.755,474.12 483.472,473.93C483.189,473.74 483.047,473.417 483.106,473.098L489.257,439.699L463.089,416.028C462.839,415.802 462.749,415.464 462.857,415.156C462.965,414.848 463.252,414.623 463.598,414.576L499.788,409.675L516.003,379.305Z" style="fill:rgb(209,0,177);"/>
                            </g>
                            <g transform="matrix(0.451023,0,0,0.505951,316.935,735.949)">
                                <path d="M516.003,379.305C516.158,379.015 516.478,378.831 516.827,378.831C517.177,378.831 517.496,379.015 517.651,379.305L533.867,409.675L570.056,414.576C570.402,414.623 570.689,414.848 570.797,415.156C570.905,415.464 570.815,415.802 570.565,416.028L544.397,439.699L550.548,473.098C550.607,473.417 550.465,473.74 550.183,473.93C549.9,474.12 549.525,474.146 549.215,473.995L516.827,458.255L484.439,473.995C484.13,474.146 483.755,474.12 483.472,473.93C483.189,473.74 483.047,473.417 483.106,473.098L489.257,439.699L463.089,416.028C462.839,415.802 462.749,415.464 462.857,415.156C462.965,414.848 463.252,414.623 463.598,414.576L499.788,409.675L516.003,379.305Z" style="fill:rgb(209,0,177);"/>
                            </g>
                            <g transform="matrix(0.451023,0,0,0.505951,316.935,-59.1769)">
                                <path d="M516.003,379.305C516.158,379.015 516.478,378.831 516.827,378.831C517.177,378.831 517.496,379.015 517.651,379.305L533.867,409.675L570.056,414.576C570.402,414.623 570.689,414.848 570.797,415.156C570.905,415.464 570.815,415.802 570.565,416.028L544.397,439.699L550.548,473.098C550.607,473.417 550.465,473.74 550.183,473.93C549.9,474.12 549.525,474.146 549.215,473.995L516.827,458.255L484.439,473.995C484.13,474.146 483.755,474.12 483.472,473.93C483.189,473.74 483.047,473.417 483.106,473.098L489.257,439.699L463.089,416.028C462.839,415.802 462.749,415.464 462.857,415.156C462.965,414.848 463.252,414.623 463.598,414.576L499.788,409.675L516.003,379.305Z" style="fill:rgb(209,0,177);"/>
                            </g>
                        </g>
                        <g id="_3rd-circle" serif:id="3rd circle" transform="matrix(1,0,0,1,-1,0)">
                            <g transform="matrix(0.569729,0,0,0.56839,88.9799,28.0859)">
                                <path d="M516.003,379.305C516.158,379.015 516.478,378.831 516.827,378.831C517.177,378.831 517.496,379.015 517.651,379.305L533.867,409.675L570.056,414.576C570.402,414.623 570.689,414.848 570.797,415.156C570.905,415.464 570.815,415.802 570.565,416.028L544.397,439.699L550.548,473.098C550.607,473.417 550.465,473.74 550.183,473.93C549.9,474.12 549.525,474.146 549.215,473.995L516.827,458.255L484.439,473.995C484.13,474.146 483.755,474.12 483.472,473.93C483.189,473.74 483.047,473.417 483.106,473.098L489.257,439.699L463.089,416.028C462.839,415.802 462.749,415.464 462.857,415.156C462.965,414.848 463.252,414.623 463.598,414.576L499.788,409.675L516.003,379.305Z" style="fill:rgb(209,0,177);"/>
                            </g>
                            <g transform="matrix(0.569729,0,0,0.56839,-71.0242,309.238)">
                                <path d="M516.003,379.305C516.158,379.015 516.478,378.831 516.827,378.831C517.177,378.831 517.496,379.015 517.651,379.305L533.867,409.675L570.056,414.576C570.402,414.623 570.689,414.848 570.797,415.156C570.905,415.464 570.815,415.802 570.565,416.028L544.397,439.699L550.548,473.098C550.607,473.417 550.465,473.74 550.183,473.93C549.9,474.12 549.525,474.146 549.215,473.995L516.827,458.255L484.439,473.995C484.13,474.146 483.755,474.12 483.472,473.93C483.189,473.74 483.047,473.417 483.106,473.098L489.257,439.699L463.089,416.028C462.839,415.802 462.749,415.464 462.857,415.156C462.965,414.848 463.252,414.623 463.598,414.576L499.788,409.675L516.003,379.305Z" style="fill:rgb(209,0,177);"/>
                            </g>
                            <g transform="matrix(0.569729,0,0,0.56839,578.528,309.238)">
                                <path d="M516.003,379.305C516.158,379.015 516.478,378.831 516.827,378.831C517.177,378.831 517.496,379.015 517.651,379.305L533.867,409.675L570.056,414.576C570.402,414.623 570.689,414.848 570.797,415.156C570.905,415.464 570.815,415.802 570.565,416.028L544.397,439.699L550.548,473.098C550.607,473.417 550.465,473.74 550.183,473.93C549.9,474.12 549.525,474.146 549.215,473.995L516.827,458.255L484.439,473.995C484.13,474.146 483.755,474.12 483.472,473.93C483.189,473.74 483.047,473.417 483.106,473.098L489.257,439.699L463.089,416.028C462.839,415.802 462.749,415.464 462.857,415.156C462.965,414.848 463.252,414.623 463.598,414.576L499.788,409.675L516.003,379.305Z" style="fill:rgb(209,0,177);"/>
                            </g>
                            <g transform="matrix(0.569729,0,0,0.56839,423.927,28.0859)">
                                <path d="M516.003,379.305C516.158,379.015 516.478,378.831 516.827,378.831C517.177,378.831 517.496,379.015 517.651,379.305L533.867,409.675L570.056,414.576C570.402,414.623 570.689,414.848 570.797,415.156C570.905,415.464 570.815,415.802 570.565,416.028L544.397,439.699L550.548,473.098C550.607,473.417 550.465,473.74 550.183,473.93C549.9,474.12 549.525,474.146 549.215,473.995L516.827,458.255L484.439,473.995C484.13,474.146 483.755,474.12 483.472,473.93C483.189,473.74 483.047,473.417 483.106,473.098L489.257,439.699L463.089,416.028C462.839,415.802 462.749,415.464 462.857,415.156C462.965,414.848 463.252,414.623 463.598,414.576L499.788,409.675L516.003,379.305Z" style="fill:rgb(209,0,177);"/>
                            </g>
                            <g transform="matrix(0.569729,0,0,0.56839,423.927,589.568)">
                                <path d="M516.003,379.305C516.158,379.015 516.478,378.831 516.827,378.831C517.177,378.831 517.496,379.015 517.651,379.305L533.867,409.675L570.056,414.576C570.402,414.623 570.689,414.848 570.797,415.156C570.905,415.464 570.815,415.802 570.565,416.028L544.397,439.699L550.548,473.098C550.607,473.417 550.465,473.74 550.183,473.93C549.9,474.12 549.525,474.146 549.215,473.995L516.827,458.255L484.439,473.995C484.13,474.146 483.755,474.12 483.472,473.93C483.189,473.74 483.047,473.417 483.106,473.098L489.257,439.699L463.089,416.028C462.839,415.802 462.749,415.464 462.857,415.156C462.965,414.848 463.252,414.623 463.598,414.576L499.788,409.675L516.003,379.305Z" style="fill:rgb(209,0,177);"/>
                            </g>
                            <g transform="matrix(0.569729,0,0,0.56839,88.9799,589.568)">
                                <path d="M516.003,379.305C516.158,379.015 516.478,378.831 516.827,378.831C517.177,378.831 517.496,379.015 517.651,379.305L533.867,409.675L570.056,414.576C570.402,414.623 570.689,414.848 570.797,415.156C570.905,415.464 570.815,415.802 570.565,416.028L544.397,439.699L550.548,473.098C550.607,473.417 550.465,473.74 550.183,473.93C549.9,474.12 549.525,474.146 549.215,473.995L516.827,458.255L484.439,473.995C484.13,474.146 483.755,474.12 483.472,473.93C483.189,473.74 483.047,473.417 483.106,473.098L489.257,439.699L463.089,416.028C462.839,415.802 462.749,415.464 462.857,415.156C462.965,414.848 463.252,414.623 463.598,414.576L499.788,409.675L516.003,379.305Z" style="fill:rgb(209,0,177);"/>
                            </g>
                        </g>
                        <g id="_2nd-circle" serif:id="2nd circle" transform="matrix(1,0,0,1,-1,0)">
                            <g transform="matrix(0.673254,0,0,0.711132,200.953,1.08344)">
                                <path d="M516.003,379.305C516.158,379.015 516.478,378.831 516.827,378.831C517.177,378.831 517.496,379.015 517.651,379.305L533.867,409.675L570.056,414.576C570.402,414.623 570.689,414.848 570.797,415.156C570.905,415.464 570.815,415.802 570.565,416.028L544.397,439.699L550.548,473.098C550.607,473.417 550.465,473.74 550.183,473.93C549.9,474.12 549.525,474.146 549.215,473.995L516.827,458.255L484.439,473.995C484.13,474.146 483.755,474.12 483.472,473.93C483.189,473.74 483.047,473.417 483.106,473.098L489.257,439.699L463.089,416.028C462.839,415.802 462.749,415.464 462.857,415.156C462.965,414.848 463.252,414.623 463.598,414.576L499.788,409.675L516.003,379.305Z" style="fill:rgb(209,0,177);"/>
                            </g>
                            <g transform="matrix(0.673254,0,0,0.711132,418.804,122.456)">
                                <path d="M516.003,379.305C516.158,379.015 516.478,378.831 516.827,378.831C517.177,378.831 517.496,379.015 517.651,379.305L533.867,409.675L570.056,414.576C570.402,414.623 570.689,414.848 570.797,415.156C570.905,415.464 570.815,415.802 570.565,416.028L544.397,439.699L550.548,473.098C550.607,473.417 550.465,473.74 550.183,473.93C549.9,474.12 549.525,474.146 549.215,473.995L516.827,458.255L484.439,473.995C484.13,474.146 483.755,474.12 483.472,473.93C483.189,473.74 483.047,473.417 483.106,473.098L489.257,439.699L463.089,416.028C462.839,415.802 462.749,415.464 462.857,415.156C462.965,414.848 463.252,414.623 463.598,414.576L499.788,409.675L516.003,379.305Z" style="fill:rgb(209,0,177);"/>
                            </g>
                            <g transform="matrix(0.673254,0,0,0.711132,417.804,371.445)">
                                <path d="M516.003,379.305C516.158,379.015 516.478,378.831 516.827,378.831C517.177,378.831 517.496,379.015 517.651,379.305L533.867,409.675L570.056,414.576C570.402,414.623 570.689,414.848 570.797,415.156C570.905,415.464 570.815,415.802 570.565,416.028L544.397,439.699L550.548,473.098C550.607,473.417 550.465,473.74 550.183,473.93C549.9,474.12 549.525,474.146 549.215,473.995L516.827,458.255L484.439,473.995C484.13,474.146 483.755,474.12 483.472,473.93C483.189,473.74 483.047,473.417 483.106,473.098L489.257,439.699L463.089,416.028C462.839,415.802 462.749,415.464 462.857,415.156C462.965,414.848 463.252,414.623 463.598,414.576L499.788,409.675L516.003,379.305Z" style="fill:rgb(209,0,177);"/>
                            </g>
                            <g transform="matrix(0.673254,0,0,0.711132,200.953,497.326)">
                                <path d="M516.003,379.305C516.158,379.015 516.478,378.831 516.827,378.831C517.177,378.831 517.496,379.015 517.651,379.305L533.867,409.675L570.056,414.576C570.402,414.623 570.689,414.848 570.797,415.156C570.905,415.464 570.815,415.802 570.565,416.028L544.397,439.699L550.548,473.098C550.607,473.417 550.465,473.74 550.183,473.93C549.9,474.12 549.525,474.146 549.215,473.995L516.827,458.255L484.439,473.995C484.13,474.146 483.755,474.12 483.472,473.93C483.189,473.74 483.047,473.417 483.106,473.098L489.257,439.699L463.089,416.028C462.839,415.802 462.749,415.464 462.857,415.156C462.965,414.848 463.252,414.623 463.598,414.576L499.788,409.675L516.003,379.305Z" style="fill:rgb(209,0,177);"/>
                            </g>
                            <g transform="matrix(0.673254,0,0,0.711132,-14.7314,371.445)">
                                <path d="M516.003,379.305C516.158,379.015 516.478,378.831 516.827,378.831C517.177,378.831 517.496,379.015 517.651,379.305L533.867,409.675L570.056,414.576C570.402,414.623 570.689,414.848 570.797,415.156C570.905,415.464 570.815,415.802 570.565,416.028L544.397,439.699L550.548,473.098C550.607,473.417 550.465,473.74 550.183,473.93C549.9,474.12 549.525,474.146 549.215,473.995L516.827,458.255L484.439,473.995C484.13,474.146 483.755,474.12 483.472,473.93C483.189,473.74 483.047,473.417 483.106,473.098L489.257,439.699L463.089,416.028C462.839,415.802 462.749,415.464 462.857,415.156C462.965,414.848 463.252,414.623 463.598,414.576L499.788,409.675L516.003,379.305Z" style="fill:rgb(209,0,177);"/>
                            </g>
                            <g transform="matrix(0.673254,0,0,0.711132,-14.7314,122.456)">
                                <path d="M516.003,379.305C516.158,379.015 516.478,378.831 516.827,378.831C517.177,378.831 517.496,379.015 517.651,379.305L533.867,409.675L570.056,414.576C570.402,414.623 570.689,414.848 570.797,415.156C570.905,415.464 570.815,415.802 570.565,416.028L544.397,439.699L550.548,473.098C550.607,473.417 550.465,473.74 550.183,473.93C549.9,474.12 549.525,474.146 549.215,473.995L516.827,458.255L484.439,473.995C484.13,474.146 483.755,474.12 483.472,473.93C483.189,473.74 483.047,473.417 483.106,473.098L489.257,439.699L463.089,416.028C462.839,415.802 462.749,415.464 462.857,415.156C462.965,414.848 463.252,414.623 463.598,414.576L499.788,409.675L516.003,379.305Z" style="fill:rgb(209,0,177);"/>
                            </g>
                        </g>
                        <g id="_1st-cricle" serif:id="1st cricle" transform="matrix(1,0,0,1,-1,0)">
                            <g transform="matrix(1.11632,0,0,1.09865,-97.2446,206.185)">
                                <path d="M516.003,379.305C516.158,379.015 516.478,378.831 516.827,378.831C517.177,378.831 517.496,379.015 517.651,379.305L533.867,409.675L570.056,414.576C570.402,414.623 570.689,414.848 570.797,415.156C570.905,415.464 570.815,415.802 570.565,416.028L544.397,439.699L550.548,473.098C550.607,473.417 550.465,473.74 550.183,473.93C549.9,474.12 549.525,474.146 549.215,473.995L516.827,458.255L484.439,473.995C484.13,474.146 483.755,474.12 483.472,473.93C483.189,473.74 483.047,473.417 483.106,473.098L489.257,439.699L463.089,416.028C462.839,415.802 462.749,415.464 462.857,415.156C462.965,414.848 463.252,414.623 463.598,414.576L499.788,409.675L516.003,379.305Z" style="fill:rgb(209,0,177);"/>
                            </g>
                            <g transform="matrix(1.11632,0,0,1.09865,-172.743,82.3642)">
                                <path d="M516.003,379.305C516.158,379.015 516.478,378.831 516.827,378.831C517.177,378.831 517.496,379.015 517.651,379.305L533.867,409.675L570.056,414.576C570.402,414.623 570.689,414.848 570.797,415.156C570.905,415.464 570.815,415.802 570.565,416.028L544.397,439.699L550.548,473.098C550.607,473.417 550.465,473.74 550.183,473.93C549.9,474.12 549.525,474.146 549.215,473.995L516.827,458.255L484.439,473.995C484.13,474.146 483.755,474.12 483.472,473.93C483.189,473.74 483.047,473.417 483.106,473.098L489.257,439.699L463.089,416.028C462.839,415.802 462.749,415.464 462.857,415.156C462.965,414.848 463.252,414.623 463.598,414.576L499.788,409.675L516.003,379.305Z" style="fill:rgb(209,0,177);"/>
                            </g>
                            <g transform="matrix(1.11632,0,0,1.09865,-97.2446,-43.6343)">
                                <path d="M516.003,379.305C516.158,379.015 516.478,378.831 516.827,378.831C517.177,378.831 517.496,379.015 517.651,379.305L533.867,409.675L570.056,414.576C570.402,414.623 570.689,414.848 570.797,415.156C570.905,415.464 570.815,415.802 570.565,416.028L544.397,439.699L550.548,473.098C550.607,473.417 550.465,473.74 550.183,473.93C549.9,474.12 549.525,474.146 549.215,473.995L516.827,458.255L484.439,473.995C484.13,474.146 483.755,474.12 483.472,473.93C483.189,473.74 483.047,473.417 483.106,473.098L489.257,439.699L463.089,416.028C462.839,415.802 462.749,415.464 462.857,415.156C462.965,414.848 463.252,414.623 463.598,414.576L499.788,409.675L516.003,379.305Z" style="fill:rgb(209,0,177);"/>
                            </g>
                            <g transform="matrix(1.11632,0,0,1.09865,50.3726,-43.6343)">
                                <path d="M516.003,379.305C516.158,379.015 516.478,378.831 516.827,378.831C517.177,378.831 517.496,379.015 517.651,379.305L533.867,409.675L570.056,414.576C570.402,414.623 570.689,414.848 570.797,415.156C570.905,415.464 570.815,415.802 570.565,416.028L544.397,439.699L550.548,473.098C550.607,473.417 550.465,473.74 550.183,473.93C549.9,474.12 549.525,474.146 549.215,473.995L516.827,458.255L484.439,473.995C484.13,474.146 483.755,474.12 483.472,473.93C483.189,473.74 483.047,473.417 483.106,473.098L489.257,439.699L463.089,416.028C462.839,415.802 462.749,415.464 462.857,415.156C462.965,414.848 463.252,414.623 463.598,414.576L499.788,409.675L516.003,379.305Z" style="fill:rgb(209,0,177);"/>
                            </g>
                            <g transform="matrix(1.11632,0,0,1.09865,119.463,82.3642)">
                                <path d="M516.003,379.305C516.158,379.015 516.478,378.831 516.827,378.831C517.177,378.831 517.496,379.015 517.651,379.305L533.867,409.675L570.056,414.576C570.402,414.623 570.689,414.848 570.797,415.156C570.905,415.464 570.815,415.802 570.565,416.028L544.397,439.699L550.548,473.098C550.607,473.417 550.465,473.74 550.183,473.93C549.9,474.12 549.525,474.146 549.215,473.995L516.827,458.255L484.439,473.995C484.13,474.146 483.755,474.12 483.472,473.93C483.189,473.74 483.047,473.417 483.106,473.098L489.257,439.699L463.089,416.028C462.839,415.802 462.749,415.464 462.857,415.156C462.965,414.848 463.252,414.623 463.598,414.576L499.788,409.675L516.003,379.305Z" style="fill:rgb(209,0,177);"/>
                            </g>
                            <g transform="matrix(1.11632,0,0,1.09865,50.3726,206.185)">
                                <path d="M516.003,379.305C516.158,379.015 516.478,378.831 516.827,378.831C517.177,378.831 517.496,379.015 517.651,379.305L533.867,409.675L570.056,414.576C570.402,414.623 570.689,414.848 570.797,415.156C570.905,415.464 570.815,415.802 570.565,416.028L544.397,439.699L550.548,473.098C550.607,473.417 550.465,473.74 550.183,473.93C549.9,474.12 549.525,474.146 549.215,473.995L516.827,458.255L484.439,473.995C484.13,474.146 483.755,474.12 483.472,473.93C483.189,473.74 483.047,473.417 483.106,473.098L489.257,439.699L463.089,416.028C462.839,415.802 462.749,415.464 462.857,415.156C462.965,414.848 463.252,414.623 463.598,414.576L499.788,409.675L516.003,379.305Z" style="fill:rgb(209,0,177);"/>
                            </g>
                        </g>
                    </g>
                </g>
            </g>
        </g>
        <g transform="matrix(1,0,0,1,16.8209,144.332)">
            <text x="173.563px" y="27.116px" style="font-family:'Arial-BoldMT', 'Arial', sans-serif;font-weight:700;font-size:25px;fill:rgb(218,0,193);">European</text>
            <text x="180.509px" y="52.933px" style="font-family:'Arial-BoldMT', 'Arial', sans-serif;font-weight:700;font-size:25px;fill:rgb(218,0,193);">Cardano</text>
            <text x="162.461px" y="78.751px" style="font-family:'Arial-BoldMT', 'Arial', sans-serif;font-weight:700;font-size:25px;fill:rgb(218,0,193);">Community</text>
            <text x="154.788px" y="130.387px" style="font-family:'ArialMT', 'Arial', sans-serif;font-size:25px;fill:rgb(218,0,193);">Country Hubs</text>
            <g transform="matrix(25,0,0,25,282.639,156.205)">
            </g>
            <text x="179.782px" y="156.205px" style="font-family:'ArialMT', 'Arial', sans-serif;font-size:25px;fill:rgb(218,0,193);">est. 2024</text>
        </g>
    </g>
</svg>
